<mxfile host="app.diagrams.net" modified="2024-03-10T07:33:58.603Z" agent="Mozilla/5.0 (Windows NT 10.0; Win64; x64) AppleWebKit/537.36 (KHTML, like Gecko) Chrome/122.0.0.0 Safari/537.36" etag="oIkLG4Iqbjr6OEGN2lMJ" version="24.0.1" type="github">
  <diagram name="第 1 页" id="ROT8hP7zYhsQpSIMFXWq">
    <mxGraphModel dx="1677" dy="983" grid="1" gridSize="10" guides="1" tooltips="1" connect="1" arrows="1" fold="1" page="1" pageScale="1" pageWidth="1169" pageHeight="827" math="0" shadow="0">
      <root>
        <mxCell id="0" />
        <mxCell id="1" parent="0" />
        <mxCell id="fwdPai1zfSGo5b2jM-RG-13" style="rounded=0;orthogonalLoop=1;jettySize=auto;html=1;entryX=0.5;entryY=0;entryDx=0;entryDy=0;endArrow=none;endFill=0;" edge="1" parent="1" source="fwdPai1zfSGo5b2jM-RG-2" target="fwdPai1zfSGo5b2jM-RG-12">
          <mxGeometry relative="1" as="geometry" />
        </mxCell>
        <mxCell id="fwdPai1zfSGo5b2jM-RG-15" style="edgeStyle=none;rounded=0;orthogonalLoop=1;jettySize=auto;html=1;strokeColor=default;align=center;verticalAlign=middle;fontFamily=Helvetica;fontSize=11;fontColor=default;labelBackgroundColor=default;endArrow=none;endFill=0;" edge="1" parent="1" source="fwdPai1zfSGo5b2jM-RG-2" target="fwdPai1zfSGo5b2jM-RG-7">
          <mxGeometry relative="1" as="geometry" />
        </mxCell>
        <mxCell id="fwdPai1zfSGo5b2jM-RG-2" value="&lt;font style=&quot;font-size: 24px;&quot;&gt;用户&lt;/font&gt;" style="rounded=0;whiteSpace=wrap;html=1;" vertex="1" parent="1">
          <mxGeometry x="560" y="220" width="120" height="60" as="geometry" />
        </mxCell>
        <mxCell id="fwdPai1zfSGo5b2jM-RG-21" style="edgeStyle=none;rounded=0;orthogonalLoop=1;jettySize=auto;html=1;entryX=1;entryY=0.5;entryDx=0;entryDy=0;strokeColor=default;align=center;verticalAlign=middle;fontFamily=Helvetica;fontSize=11;fontColor=default;labelBackgroundColor=default;endArrow=none;endFill=0;" edge="1" parent="1" source="fwdPai1zfSGo5b2jM-RG-3" target="fwdPai1zfSGo5b2jM-RG-10">
          <mxGeometry relative="1" as="geometry" />
        </mxCell>
        <mxCell id="fwdPai1zfSGo5b2jM-RG-3" value="任务" style="rounded=0;whiteSpace=wrap;html=1;" vertex="1" parent="1">
          <mxGeometry x="560" y="520" width="120" height="60" as="geometry" />
        </mxCell>
        <mxCell id="fwdPai1zfSGo5b2jM-RG-19" style="edgeStyle=none;rounded=0;orthogonalLoop=1;jettySize=auto;html=1;entryX=1;entryY=0.5;entryDx=0;entryDy=0;strokeColor=default;align=center;verticalAlign=middle;fontFamily=Helvetica;fontSize=11;fontColor=default;labelBackgroundColor=default;endArrow=none;endFill=0;" edge="1" parent="1" source="fwdPai1zfSGo5b2jM-RG-5" target="fwdPai1zfSGo5b2jM-RG-9">
          <mxGeometry relative="1" as="geometry" />
        </mxCell>
        <mxCell id="fwdPai1zfSGo5b2jM-RG-5" value="模型集成模板" style="rounded=0;whiteSpace=wrap;html=1;" vertex="1" parent="1">
          <mxGeometry x="880" y="520" width="120" height="60" as="geometry" />
        </mxCell>
        <mxCell id="fwdPai1zfSGo5b2jM-RG-17" style="edgeStyle=none;rounded=0;orthogonalLoop=1;jettySize=auto;html=1;entryX=0.5;entryY=0;entryDx=0;entryDy=0;strokeColor=default;align=center;verticalAlign=middle;fontFamily=Helvetica;fontSize=11;fontColor=default;labelBackgroundColor=default;endArrow=none;endFill=0;" edge="1" parent="1" source="fwdPai1zfSGo5b2jM-RG-6" target="fwdPai1zfSGo5b2jM-RG-8">
          <mxGeometry relative="1" as="geometry" />
        </mxCell>
        <mxCell id="fwdPai1zfSGo5b2jM-RG-6" value="城市雨洪模型" style="rounded=0;whiteSpace=wrap;html=1;" vertex="1" parent="1">
          <mxGeometry x="880" y="220" width="120" height="60" as="geometry" />
        </mxCell>
        <mxCell id="fwdPai1zfSGo5b2jM-RG-16" style="edgeStyle=none;rounded=0;orthogonalLoop=1;jettySize=auto;html=1;strokeColor=default;align=center;verticalAlign=middle;fontFamily=Helvetica;fontSize=11;fontColor=default;labelBackgroundColor=default;endArrow=none;endFill=0;" edge="1" parent="1" source="fwdPai1zfSGo5b2jM-RG-7" target="fwdPai1zfSGo5b2jM-RG-6">
          <mxGeometry relative="1" as="geometry" />
        </mxCell>
        <mxCell id="fwdPai1zfSGo5b2jM-RG-7" value="注册" style="rhombus;whiteSpace=wrap;html=1;" vertex="1" parent="1">
          <mxGeometry x="740" y="220" width="80" height="60" as="geometry" />
        </mxCell>
        <mxCell id="fwdPai1zfSGo5b2jM-RG-18" style="edgeStyle=none;rounded=0;orthogonalLoop=1;jettySize=auto;html=1;strokeColor=default;align=center;verticalAlign=middle;fontFamily=Helvetica;fontSize=11;fontColor=default;labelBackgroundColor=default;endArrow=none;endFill=0;" edge="1" parent="1" source="fwdPai1zfSGo5b2jM-RG-8" target="fwdPai1zfSGo5b2jM-RG-5">
          <mxGeometry relative="1" as="geometry" />
        </mxCell>
        <mxCell id="fwdPai1zfSGo5b2jM-RG-8" value="组成" style="rhombus;whiteSpace=wrap;html=1;" vertex="1" parent="1">
          <mxGeometry x="900" y="370" width="80" height="60" as="geometry" />
        </mxCell>
        <mxCell id="fwdPai1zfSGo5b2jM-RG-20" style="edgeStyle=none;rounded=0;orthogonalLoop=1;jettySize=auto;html=1;entryX=1;entryY=0.5;entryDx=0;entryDy=0;strokeColor=default;align=center;verticalAlign=middle;fontFamily=Helvetica;fontSize=11;fontColor=default;labelBackgroundColor=default;endArrow=none;endFill=0;" edge="1" parent="1" source="fwdPai1zfSGo5b2jM-RG-9" target="fwdPai1zfSGo5b2jM-RG-3">
          <mxGeometry relative="1" as="geometry" />
        </mxCell>
        <mxCell id="fwdPai1zfSGo5b2jM-RG-9" value="创建" style="rhombus;whiteSpace=wrap;html=1;" vertex="1" parent="1">
          <mxGeometry x="740" y="520" width="80" height="60" as="geometry" />
        </mxCell>
        <mxCell id="fwdPai1zfSGo5b2jM-RG-22" style="edgeStyle=none;rounded=0;orthogonalLoop=1;jettySize=auto;html=1;entryX=1;entryY=0.5;entryDx=0;entryDy=0;strokeColor=default;align=center;verticalAlign=middle;fontFamily=Helvetica;fontSize=11;fontColor=default;labelBackgroundColor=default;endArrow=none;endFill=0;" edge="1" parent="1" source="fwdPai1zfSGo5b2jM-RG-10" target="fwdPai1zfSGo5b2jM-RG-11">
          <mxGeometry relative="1" as="geometry" />
        </mxCell>
        <mxCell id="fwdPai1zfSGo5b2jM-RG-10" value="执行" style="rhombus;whiteSpace=wrap;html=1;" vertex="1" parent="1">
          <mxGeometry x="420" y="520" width="80" height="60" as="geometry" />
        </mxCell>
        <mxCell id="fwdPai1zfSGo5b2jM-RG-11" value="结果" style="rounded=0;whiteSpace=wrap;html=1;" vertex="1" parent="1">
          <mxGeometry x="240" y="520" width="120" height="60" as="geometry" />
        </mxCell>
        <mxCell id="fwdPai1zfSGo5b2jM-RG-14" style="edgeStyle=none;rounded=0;orthogonalLoop=1;jettySize=auto;html=1;entryX=0.5;entryY=0;entryDx=0;entryDy=0;strokeColor=default;align=center;verticalAlign=middle;fontFamily=Helvetica;fontSize=11;fontColor=default;labelBackgroundColor=default;endArrow=none;endFill=0;" edge="1" parent="1" source="fwdPai1zfSGo5b2jM-RG-12" target="fwdPai1zfSGo5b2jM-RG-3">
          <mxGeometry relative="1" as="geometry" />
        </mxCell>
        <mxCell id="fwdPai1zfSGo5b2jM-RG-12" value="发起" style="rhombus;whiteSpace=wrap;html=1;" vertex="1" parent="1">
          <mxGeometry x="580" y="370" width="80" height="60" as="geometry" />
        </mxCell>
      </root>
    </mxGraphModel>
  </diagram>
</mxfile>
